<svg width="16" height="17" viewBox="0 0 16 17" fill="none" xmlns="http://www.w3.org/2000/svg">
<path d="M0 5.25C0 4.35371 0.7175 3.625 1.6 3.625H6.4H7.6H8H14.4C15.2825 3.625 16 4.35371 16 5.25V11.75C16 12.6463 15.2825 13.375 14.4 13.375H8H7.6H6.4H1.6C0.7175 13.375 0 12.6463 0 11.75V5.25ZM8 5.25V11.75H14.4V5.25H8ZM4.4575 6.46621C4.3775 6.2834 4.1975 6.16406 4 6.16406C3.8025 6.16406 3.6225 6.2834 3.5425 6.46621L1.9425 10.1225C1.83 10.3789 1.945 10.6785 2.1975 10.7928C2.45 10.907 2.745 10.7902 2.8575 10.5338L3.08 10.0234H4.92L5.1425 10.5338C5.255 10.7902 5.55 10.9045 5.8025 10.7928C6.055 10.6811 6.1675 10.3789 6.0575 10.1225L4.4575 6.46621ZM4 7.92109L4.475 9.00781H3.525L4 7.92109ZM11.2 6.16406C11.475 6.16406 11.7 6.39258 11.7 6.67188V6.77344H12.8H13.2C13.475 6.77344 13.7 7.00195 13.7 7.28125C13.7 7.56055 13.475 7.78906 13.2 7.78906H13.15L13.11 7.90332C12.8875 8.52285 12.55 9.08652 12.12 9.56387C12.1425 9.5791 12.165 9.5918 12.1875 9.60449L12.66 9.89141C12.8975 10.0361 12.9725 10.3484 12.8325 10.5871C12.6925 10.8258 12.3825 10.9045 12.1475 10.7623L11.675 10.4754C11.5625 10.4068 11.455 10.3357 11.3475 10.2596C11.0825 10.45 10.8 10.615 10.4975 10.7521L10.4075 10.7928C10.155 10.907 9.86 10.7902 9.7475 10.5338C9.635 10.2773 9.75 9.97773 10.0025 9.86348L10.0925 9.82285C10.2525 9.74922 10.4075 9.66797 10.555 9.57402L10.25 9.26426C10.055 9.06621 10.055 8.74375 10.25 8.5457C10.445 8.34766 10.7625 8.34766 10.9575 8.5457L11.3225 8.91641L11.335 8.9291C11.645 8.59648 11.8975 8.21055 12.08 7.78652L11.2 7.78906H9.4C9.125 7.78906 8.9 7.56055 8.9 7.28125C8.9 7.00195 9.125 6.77344 9.4 6.77344H10.7V6.67188C10.7 6.39258 10.925 6.16406 11.2 6.16406Z" fill="white"/>
</svg>
