<svg width="16" height="17" viewBox="0 0 16 17" fill="none" xmlns="http://www.w3.org/2000/svg">
<g clip-path="url(#clip0_466_313)">
<path d="M6.04402 1.52272C6.10161 1.39385 6.12029 1.2511 6.09781 1.11185C6.07533 0.972602 6.01264 0.842864 5.91739 0.738436C5.82214 0.634009 5.69843 0.559399 5.56133 0.523692C5.42423 0.487986 5.27965 0.492724 5.14521 0.53733C4.08417 0.889307 3.23797 1.58235 2.46193 2.35467C1.68179 3.12529 1.06261 4.04194 0.640071 5.05179C0.217536 6.06165 0 7.14474 0 8.23864C0 9.33255 0.217536 10.4156 0.640071 11.4255C1.06261 12.4353 1.68179 13.352 2.46193 14.1226C5.76342 17.409 10.8728 17.2213 14.1363 13.9735C14.9123 13.2012 15.608 12.3591 15.9616 11.3024C16.005 11.1725 16.0107 11.0331 15.978 10.9001C15.9453 10.7672 15.8755 10.6461 15.7767 10.5508C15.678 10.4556 15.5542 10.39 15.4196 10.3616C15.285 10.3333 15.1452 10.3433 15.0161 10.3905C12.3927 11.3519 9.40763 10.9243 7.39224 8.91787C5.37028 6.90564 4.9596 3.9502 6.04402 1.52272Z" fill="white"/>
</g>
<defs>
<clipPath id="clip0_466_313">
<rect width="16" height="16" fill="white" transform="translate(0 0.5)"/>
</clipPath>
</defs>
</svg>
