<svg width="16" height="17" viewBox="0 0 16 17" fill="none" xmlns="http://www.w3.org/2000/svg">
<g clip-path="url(#clip0_528_350)">
<path d="M8 0.5C7.337 0.5 6.8 1.05937 6.8 1.75V6.88125C6.545 6.64375 6.209 6.5 5.84 6.5C5.045 6.5 4.4 7.17188 4.4 8V8.21875V10.5C4.4 10.775 4.184 11 3.92 11C3.656 11 3.44 10.775 3.44 10.5V8.75937C3.38 8.80312 3.323 8.85312 3.266 8.9L2.69 9.4C2.252 9.78125 2 10.3438 2 10.9375V12.125C2 13.3125 2.507 14.4375 3.383 15.1969L3.545 15.3375C4.409 16.0875 5.495 16.4969 6.617 16.4969L10.16 16.5C12.281 16.5 14 14.7094 14 12.5V10.5V9.5C14 8.67188 13.355 8 12.56 8C12.188 8 11.852 8.14687 11.597 8.38438C11.54 7.60938 10.919 7 10.16 7C9.791 7 9.455 7.14375 9.2 7.38125V1.75C9.2 1.05937 8.663 0.5 8 0.5Z" fill="#FA4F4F"/>
</g>
<defs>
<clipPath id="clip0_528_350">
<rect width="16" height="16" fill="white" transform="translate(0 0.5)"/>
</clipPath>
</defs>
</svg>
