<svg width="16" height="17" viewBox="0 0 16 17" fill="none" xmlns="http://www.w3.org/2000/svg">
<path d="M15.7396 2.9948C16.0868 2.65305 16.0868 2.09806 15.7396 1.75631C15.3923 1.41456 14.8284 1.41456 14.4812 1.75631L9.14762 7.00554L8.18369 6.05685C8.06702 5.94203 7.9059 5.87641 7.73923 5.87641C7.39199 5.87641 7.11142 6.15254 7.11142 6.49429V7.28987L10.1199 10.2508H10.9283C11.2755 10.2508 11.5561 9.97464 11.5561 9.63289C11.5561 9.46885 11.4894 9.31028 11.3727 9.19546L10.4088 8.24677L15.7424 2.99753L15.7396 2.9948ZM9.47541 11.1639L6.1836 7.92416C4.99744 7.823 3.81683 8.24403 2.9668 9.08063L2.74456 9.29935C2.12509 9.90902 1.77786 10.7347 1.77786 11.5959C1.77786 11.7818 1.97509 11.9021 2.14454 11.8201L3.56404 11.1229C3.70294 11.0546 3.82794 11.235 3.71405 11.3389L0.202787 14.4447C0.0750033 14.5595 0 14.7236 0 14.8958C0 15.2293 0.275012 15.5 0.613916 15.5H5.42801C6.50584 15.5 7.53644 15.079 8.30036 14.3299C9.1504 13.4933 9.57542 12.3313 9.47541 11.1639Z" fill="white"/>
</svg>
