<svg width="16" height="17" viewBox="0 0 16 17" fill="none" xmlns="http://www.w3.org/2000/svg">
<path d="M0.5 8.5C0.5 7.96957 0.704861 7.46086 1.06951 7.08579C1.43417 6.71071 1.92875 6.5 2.44444 6.5C2.96014 6.5 3.45472 6.71071 3.81937 7.08579C4.18403 7.46086 4.38889 7.96957 4.38889 8.5C4.38889 9.03043 4.18403 9.53914 3.81937 9.91421C3.45472 10.2893 2.96014 10.5 2.44444 10.5C1.92875 10.5 1.43417 10.2893 1.06951 9.91421C0.704861 9.53914 0.5 9.03043 0.5 8.5ZM6.05556 8.5C6.05556 7.96957 6.26042 7.46086 6.62507 7.08579C6.98972 6.71071 7.4843 6.5 8 6.5C8.5157 6.5 9.01028 6.71071 9.37493 7.08579C9.73958 7.46086 9.94444 7.96957 9.94444 8.5C9.94444 9.03043 9.73958 9.53914 9.37493 9.91421C9.01028 10.2893 8.5157 10.5 8 10.5C7.4843 10.5 6.98972 10.2893 6.62507 9.91421C6.26042 9.53914 6.05556 9.03043 6.05556 8.5ZM13.5556 6.5C14.0713 6.5 14.5658 6.71071 14.9305 7.08579C15.2951 7.46086 15.5 7.96957 15.5 8.5C15.5 9.03043 15.2951 9.53914 14.9305 9.91421C14.5658 10.2893 14.0713 10.5 13.5556 10.5C13.0399 10.5 12.5453 10.2893 12.1806 9.91421C11.816 9.53914 11.6111 9.03043 11.6111 8.5C11.6111 7.96957 11.816 7.46086 12.1806 7.08579C12.5453 6.71071 13.0399 6.5 13.5556 6.5Z" fill="white"/>
</svg>
