<svg width="32" height="32" viewBox="0 0 32 32" fill="none" xmlns="http://www.w3.org/2000/svg">
<rect width="32" height="32" rx="16" fill="#262626"/>
<g clip-path="url(#clip0_204_1466)">
<path d="M20.8381 15.2276L21.1917 14.8741L20.131 13.8137L18.1878 11.8711L17.1271 10.8107L16.7735 11.1641L16.0664 11.8711L9.83333 18.1024C9.50791 18.4277 9.27011 18.8313 9.13869 19.2723L8.03101 23.0386C7.95279 23.3014 8.02476 23.5861 8.22188 23.78C8.41901 23.9739 8.70063 24.0459 8.96346 23.9708L12.7277 22.8634C13.1689 22.7321 13.5725 22.4943 13.8979 22.169L20.131 15.9377L20.8381 15.2276ZM13.0062 20.4954L12.7214 21.2055C12.5963 21.3025 12.4555 21.3744 12.3053 21.4214L9.85837 22.1408L10.578 19.6978C10.6218 19.5445 10.6969 19.4037 10.7939 19.2817L11.5042 18.997V19.9981C11.5042 20.2733 11.7295 20.4986 12.0049 20.4986H13.0062V20.4954ZM19.3487 8.58653L18.8981 9.04011L18.191 9.74708L17.8343 10.1006L18.895 11.161L20.8381 13.1036L21.8989 14.164L22.2524 13.8106L22.9596 13.1036L23.4133 12.65C24.1956 11.868 24.1956 10.6011 23.4133 9.81902L22.1836 8.58653C21.4013 7.80449 20.1341 7.80449 19.3518 8.58653H19.3487Z" fill="white" fill-opacity="0.75"/>
</g>
<defs>
<clipPath id="clip0_204_1466">
<rect width="16" height="16" fill="white" transform="translate(8 8)"/>
</clipPath>
</defs>
</svg>
