<svg width="32" height="32" viewBox="0 0 32 32" fill="none" xmlns="http://www.w3.org/2000/svg">
<g clip-path="url(#clip0_223_594)">
<path d="M23.4584 13.2073C23.5579 13.4792 23.474 13.7824 23.2595 13.9762L21.9136 15.2077C21.9478 15.4671 21.9664 15.7328 21.9664 16.0016C21.9664 16.2704 21.9478 16.536 21.9136 16.7955L23.2595 18.027C23.474 18.2207 23.5579 18.5239 23.4584 18.7959C23.3217 19.1678 23.1569 19.5241 22.9673 19.8679L22.8212 20.1211C22.6161 20.4649 22.386 20.79 22.1343 21.0963C21.9509 21.3214 21.6463 21.3964 21.3727 21.3088L19.6414 20.7556C19.2249 21.0776 18.7649 21.3464 18.2737 21.5495L17.8852 23.3342C17.823 23.6187 17.6054 23.8437 17.3195 23.8906C16.8905 23.9625 16.4492 24 15.9984 24C15.5477 24 15.1064 23.9625 14.6774 23.8906C14.3914 23.8437 14.1739 23.6187 14.1117 23.3342L13.7232 21.5495C13.232 21.3464 12.772 21.0776 12.3555 20.7556L10.6273 21.312C10.3537 21.3995 10.0491 21.3214 9.86573 21.0994C9.61395 20.7931 9.38394 20.4681 9.17879 20.1242L9.0327 19.8711C8.84309 19.5273 8.67835 19.1709 8.54158 18.799C8.44212 18.5271 8.52604 18.2239 8.74051 18.0301L10.0864 16.7986C10.0522 16.536 10.0336 16.2704 10.0336 16.0016C10.0336 15.7328 10.0522 15.4671 10.0864 15.2077L8.74051 13.9762C8.52604 13.7824 8.44212 13.4792 8.54158 13.2073C8.67835 12.8353 8.84309 12.479 9.0327 12.1352L9.17879 11.882C9.38394 11.5382 9.61395 11.2131 9.86573 10.9068C10.0491 10.6818 10.3537 10.6068 10.6273 10.6943L12.3586 11.2475C12.7751 10.9256 13.2351 10.6568 13.7263 10.4536L14.1148 8.66888C14.177 8.38445 14.3946 8.15941 14.6805 8.11252C15.1095 8.03751 15.5508 8 16.0016 8C16.4523 8 16.8936 8.03751 17.3226 8.1094C17.6086 8.15628 17.8261 8.38132 17.8883 8.66576L18.2768 10.4505C18.768 10.6536 19.228 10.9224 19.6445 11.2444L21.3758 10.6912C21.6494 10.6036 21.954 10.6818 22.1374 10.9037C22.3892 11.21 22.6192 11.5351 22.8243 11.8789L22.9704 12.1321C23.16 12.4759 23.3248 12.8322 23.4615 13.2041L23.4584 13.2073ZM16.0016 18.5021C16.6611 18.5021 17.2935 18.2386 17.7599 17.7697C18.2262 17.3007 18.4882 16.6647 18.4882 16.0016C18.4882 15.3384 18.2262 14.7024 17.7599 14.2335C17.2935 13.7645 16.6611 13.5011 16.0016 13.5011C15.3421 13.5011 14.7096 13.7645 14.2432 14.2335C13.7769 14.7024 13.5149 15.3384 13.5149 16.0016C13.5149 16.6647 13.7769 17.3007 14.2432 17.7697C14.7096 18.2386 15.3421 18.5021 16.0016 18.5021Z" fill="white" fill-opacity="0.5"/>
</g>
<defs>
<clipPath id="clip0_223_594">
<rect width="16" height="16" fill="white" transform="translate(8 8)"/>
</clipPath>
</defs>
</svg>
