<svg width="16" height="17" viewBox="0 0 16 17" fill="none" xmlns="http://www.w3.org/2000/svg">
<g clip-path="url(#clip0_466_322)">
<path d="M15.4584 5.70727C15.5579 5.9792 15.474 6.28238 15.2595 6.47617L13.9136 7.70766C13.9478 7.96708 13.9664 8.23276 13.9664 8.50156C13.9664 8.77037 13.9478 9.03604 13.9136 9.29547L15.2595 10.527C15.474 10.7207 15.5579 11.0239 15.4584 11.2959C15.3217 11.6678 15.1569 12.0241 14.9673 12.3679L14.8212 12.6211C14.6161 12.9649 14.386 13.29 14.1343 13.5963C13.9509 13.8214 13.6463 13.8964 13.3727 13.8088L11.6414 13.2556C11.2249 13.5776 10.7649 13.8464 10.2737 14.0495L9.8852 15.8342C9.82303 16.1187 9.60545 16.3437 9.31948 16.3906C8.89053 16.4625 8.44915 16.5 7.99845 16.5C7.54774 16.5 7.10636 16.4625 6.67741 16.3906C6.39144 16.3437 6.17386 16.1187 6.11169 15.8342L5.72315 14.0495C5.23204 13.8464 4.77201 13.5776 4.35549 13.2556L2.62727 13.812C2.35373 13.8995 2.04912 13.8214 1.86573 13.5994C1.61395 13.2931 1.38394 12.9681 1.17879 12.6242L1.0327 12.3711C0.843089 12.0273 0.678348 11.6709 0.541582 11.299C0.442115 11.0271 0.52604 10.7239 0.740514 10.5301L2.08642 9.29859C2.05223 9.03604 2.03358 8.77037 2.03358 8.50156C2.03358 8.23276 2.05223 7.96708 2.08642 7.70766L0.740514 6.47617C0.52604 6.28238 0.442115 5.9792 0.541582 5.70727C0.678348 5.33532 0.843089 4.979 1.0327 4.63518L1.17879 4.38201C1.38394 4.03819 1.61395 3.71313 1.86573 3.40682C2.04912 3.18177 2.35373 3.10676 2.62727 3.19428L4.3586 3.74751C4.77512 3.42557 5.23515 3.15677 5.72626 2.9536L6.1148 1.16888C6.17697 0.88445 6.39455 0.659406 6.68052 0.612522C7.10947 0.537507 7.55085 0.5 8.00155 0.5C8.45226 0.5 8.89364 0.537507 9.32259 0.609396C9.60856 0.656281 9.82614 0.881324 9.88831 1.16576L10.2768 2.95048C10.768 3.15364 11.228 3.42245 11.6445 3.74438L13.3758 3.19115C13.6494 3.10363 13.954 3.18177 14.1374 3.40369C14.3892 3.71 14.6192 4.03507 14.8243 4.37888L14.9704 4.63206C15.16 4.97587 15.3248 5.33219 15.4615 5.70414L15.4584 5.70727ZM8.00155 11.0021C8.66106 11.0021 9.29355 10.7386 9.75989 10.2697C10.2262 9.80074 10.4882 9.16473 10.4882 8.50156C10.4882 7.83839 10.2262 7.20238 9.75989 6.73345C9.29355 6.26452 8.66106 6.00107 8.00155 6.00107C7.34205 6.00107 6.70956 6.26452 6.24322 6.73345C5.77688 7.20238 5.5149 7.83839 5.5149 8.50156C5.5149 9.16473 5.77688 9.80074 6.24322 10.2697C6.70956 10.7386 7.34205 11.0021 8.00155 11.0021Z" fill="white"/>
</g>
<defs>
<clipPath id="clip0_466_322">
<rect width="16" height="16" fill="white" transform="translate(0 0.5)"/>
</clipPath>
</defs>
</svg>
