<svg width="16" height="17" viewBox="0 0 16 17" fill="none" xmlns="http://www.w3.org/2000/svg">
<path d="M8.36461 2.08069C8.68409 2.23158 8.88966 2.56238 8.88966 2.928V14.0707C8.88966 14.4363 8.68409 14.7671 8.36461 14.918C8.04514 15.0689 7.67011 15.008 7.40898 14.7642L3.66143 11.285H1.77793C0.797291 11.285 0 10.4522 0 9.42792V7.5708C0 6.54648 0.797291 5.71368 1.77793 5.71368H3.66143L7.40898 2.23449C7.67011 1.99074 8.04514 1.9327 8.36461 2.08069ZM11.8066 5.9168L13.3345 7.51277L14.8624 5.9168C15.1235 5.64404 15.5458 5.64404 15.8041 5.9168C16.0625 6.18957 16.0653 6.63063 15.8041 6.9005L14.2762 8.49646L15.8041 10.0924C16.0653 10.3652 16.0653 10.8062 15.8041 11.0761C15.543 11.346 15.1208 11.3489 14.8624 11.0761L13.3345 9.48015L11.8066 11.0761C11.5454 11.3489 11.1232 11.3489 10.8648 11.0761C10.6065 10.8033 10.6037 10.3623 10.8648 10.0924L12.3927 8.49646L10.8648 6.9005C10.6037 6.62773 10.6037 6.18667 10.8648 5.9168C11.126 5.64694 11.5482 5.64404 11.8066 5.9168Z" fill="white"/>
</svg>
